<svg width="26" height="26" viewBox="0 0 26 26" fill="none" xmlns="http://www.w3.org/2000/svg">
<g clip-path="url(#clip0_68_361)">
<path d="M22.2005 7.02882C22.8672 6.64392 22.8672 5.68166 22.2005 5.29676L13.5259 0.288663C13.2165 0.110037 12.8353 0.110038 12.5259 0.288666L3.85156 5.29677C3.18489 5.68166 3.18489 6.64391 3.85155 7.02882L12.5259 12.0371C12.8353 12.2157 13.2165 12.2157 13.5259 12.0371L22.2005 7.02882Z" fill="#2B3350"/>
<path d="M13.8008 24.2682C13.8008 25.038 14.6341 25.5191 15.3008 25.1342L23.9781 20.1243C24.2875 19.9457 24.4781 19.6156 24.4781 19.2583V10.1642C24.4781 9.39436 23.6448 8.91323 22.9781 9.29812L14.3008 14.3078C13.9914 14.4865 13.8008 14.8166 13.8008 15.1739V24.2682Z" fill="#2B3350"/>
<path d="M3.07422 9.29814C2.40755 8.91324 1.57422 9.39437 1.57422 10.1642V19.2583C1.57422 19.6156 1.76481 19.9457 2.07421 20.1243L10.7514 25.1342C11.418 25.5191 12.2514 25.038 12.2514 24.2682V15.1738C12.2514 14.8166 12.0608 14.4865 11.7514 14.3078L3.07422 9.29814Z" fill="#2B3350"/>
</g>
<defs>
<clipPath id="clip0_68_361">
<rect width="26" height="26" fill="white"/>
</clipPath>
</defs>
</svg>
