<svg width="29" height="29" viewBox="0 0 29 29" fill="none" xmlns="http://www.w3.org/2000/svg">
<path fill-rule="evenodd" clip-rule="evenodd" d="M8 3.15639C8 2.4122 7.2184 1.93611 6.59488 2.34237C6.53601 2.38072 6.47744 2.41949 6.41918 2.45867C5.86371 2.83217 5.94206 3.71199 5.99521 4.37924C5.99838 4.41908 6 4.45935 6 4.5V10.5C6 11.3284 5.32843 12 4.5 12C3.67157 12 3 11.3284 3 10.5V8.60717C3 7.65232 1.87254 7.30386 1.45467 8.16242C0.522791 10.077 0 12.2275 0 14.5C0 16.7725 0.522791 18.923 1.45467 20.8376C1.87254 21.6961 3 21.3477 3 20.3928V17.5C3 16.6716 3.67157 16 4.5 16C5.32843 16 6 16.6716 6 17.5V23.5C6 24.3284 5.32843 25 4.5 25C4.49999 25 4.49998 25 4.49999 25C5.14466 25.6142 5.84582 26.1696 6.59488 26.6576C7.2184 27.0639 8 26.5878 8 25.8436V25.5C8 24.6716 8.67157 24 9.5 24C10.3284 24 11 24.6716 11 25.5V27.7924C11 28.252 11.3127 28.6561 11.7642 28.7423C12.6501 28.9114 13.5647 29 14.5 29C15.4353 29 16.3499 28.9114 17.2358 28.7423C17.6873 28.6561 18 28.252 18 27.7924V25.5C18 24.6716 18.6716 24 19.5 24C20.3284 24 21 24.6716 21 25.5V25.8436C21 26.5878 21.7816 27.0639 22.4051 26.6576C23.1542 26.1696 23.8553 25.6142 24.5 25C24.5 25 24.5 25 24.5 25C23.6716 25 23 24.3284 23 23.5V17.5C23 16.6716 23.6716 16 24.5 16C25.3284 16 26 16.6716 26 17.5V20.3928C26 21.3477 27.1275 21.6961 27.5453 20.8376C28.4772 18.923 29 16.7725 29 14.5C29 12.2275 28.4772 10.077 27.5453 8.16242C27.1275 7.30386 26 7.65232 26 8.60717V10.5C26 11.3284 25.3284 12 24.5 12C23.6716 12 23 11.3284 23 10.5V4.5C23 4.45935 23.0016 4.41908 23.0048 4.37924C23.0579 3.71199 23.1363 2.83217 22.5808 2.45867C22.5226 2.41949 22.464 2.38072 22.4051 2.34237C21.7816 1.93611 21 2.4122 21 3.15639V3.5C21 4.32843 20.3284 5 19.5 5C18.6716 5 18 4.32843 18 3.5V1.20764C18 0.74802 17.6873 0.343925 17.2358 0.257721C16.3499 0.0885491 15.4353 0 14.5 0C13.5647 0 12.6501 0.0885491 11.7642 0.257721C11.3127 0.343925 11 0.74802 11 1.20764V3.5C11 4.32843 10.3284 5 9.5 5C8.67157 5 8 4.32843 8 3.5V3.15639ZM13 4.5C13 3.67157 13.6716 3 14.5 3C15.3284 3 16 3.67157 16 4.5V10.5C16 11.3284 15.3284 12 14.5 12C13.6716 12 13 11.3284 13 10.5V4.5ZM9.5 10C8.67157 10 8 10.6716 8 11.5V17.5C8 18.3284 8.67157 19 9.5 19C10.3284 19 11 18.3284 11 17.5V11.5C11 10.6716 10.3284 10 9.5 10ZM19.5 10C18.6716 10 18 10.6716 18 11.5V17.5C18 18.3284 18.6716 19 19.5 19C20.3284 19 21 18.3284 21 17.5V11.5C21 10.6716 20.3284 10 19.5 10ZM14.5 16C13.6716 16 13 16.6716 13 17.5V23.5C13 24.3284 13.6716 25 14.5 25C15.3284 25 16 24.3284 16 23.5V17.5C16 16.6716 15.3284 16 14.5 16Z" fill="#2B3350"/>
</svg>
