<svg width="28" height="28" viewBox="0 0 28 28" fill="none" xmlns="http://www.w3.org/2000/svg">
<g clip-path="url(#clip0_68_353)">
<path d="M24.2205 19.9591C23.5298 19.6135 22.9955 19.1416 22.5864 18.517V18.5165C19.8925 14.4028 22.9457 11.3561 25.0058 9.90631C25.6757 9.43436 25.9639 8.59212 25.7216 7.81118L25.014 5.52737C24.7739 4.75245 24.0663 4.22084 23.253 4.20503C20.3167 4.14717 18.3318 2.33002 17.7734 1.10305C17.4688 0.433125 16.7972 0 16.0622 0H11.9377C11.2027 0 10.5311 0.433125 10.2265 1.10305C9.76153 2.12455 7.90238 4.1428 4.7468 4.20498C3.93359 4.22084 3.22594 4.7524 2.98586 5.52732L2.2782 7.81112C2.03594 8.59206 2.32414 9.43431 2.99406 9.90626C5.05414 11.356 8.10734 14.4027 5.41344 18.517C5.00438 19.1415 4.47008 19.6135 3.77938 19.9591C2.73315 20.4816 2.41798 21.8325 3.12859 22.7712L4.60625 24.7214C5.15586 25.4471 6.14133 25.6757 6.94961 25.265C8.75266 24.349 11.3148 24.0066 13.2813 27.5761C13.5926 28.1408 14.4069 28.1416 14.7185 27.5761C16.6851 24.0066 19.2472 24.349 21.0502 25.265C21.8585 25.6757 22.844 25.4471 23.3936 24.7214L24.8713 22.7712C25.5829 21.8311 25.2652 20.481 24.2205 19.9591ZM13.9999 3.33599C15.3567 3.33599 16.4609 4.44013 16.4609 5.79698C16.4609 7.15384 15.3567 8.25798 13.9999 8.25798C12.6431 8.25798 11.539 7.15384 11.539 5.79698C11.539 4.44013 12.6431 3.33599 13.9999 3.33599ZM13.9999 21.3832C13.5471 21.3832 13.1796 21.0157 13.1796 20.5629C13.1796 20.1101 13.5471 19.7426 13.9999 19.7426C14.4527 19.7426 14.8202 20.1101 14.8202 20.5629C14.8202 21.0157 14.4527 21.3832 13.9999 21.3832ZM17.5016 18.1019H10.4983C10.0455 18.1019 9.67797 17.7344 9.67797 17.2816C9.67797 16.8288 10.0455 16.4613 10.4983 16.4613H17.5016C17.9544 16.4613 18.3219 16.8288 18.3219 17.2816C18.3219 17.7344 17.9544 18.1019 17.5016 18.1019ZM17.5016 14.8206H10.4983C10.0455 14.8206 9.67797 14.4531 9.67797 14.0003C9.67797 13.5475 10.0455 13.18 10.4983 13.18H17.5016C17.9544 13.18 18.3219 13.5475 18.3219 14.0003C18.3219 14.4531 17.9544 14.8206 17.5016 14.8206ZM17.5016 11.5393H10.4983C10.0455 11.5393 9.67797 11.1718 9.67797 10.719C9.67797 10.2662 10.0455 9.89866 10.4983 9.89866H17.5016C17.9544 9.89866 18.3219 10.2662 18.3219 10.719C18.3219 11.1718 17.9544 11.5393 17.5016 11.5393ZM13.9999 6.6173C14.4522 6.6173 14.8202 6.24925 14.8202 5.79698C14.8202 5.34472 14.4522 4.97667 13.9999 4.97667C13.5477 4.97667 13.1796 5.34472 13.1796 5.79698C13.1796 6.24925 13.5477 6.6173 13.9999 6.6173Z" fill="#2B3350"/>
</g>
<defs>
<clipPath id="clip0_68_353">
<rect width="28" height="28" fill="white"/>
</clipPath>
</defs>
</svg>
