<svg width="24" height="24" viewBox="0 0 24 24" fill="none" xmlns="http://www.w3.org/2000/svg">
<path d="M17.9445 2.46193C16.357 0.874409 14.2462 0 12.0012 0C9.75577 0 7.64535 0.874409 6.05783 2.46193C3.11991 5.39942 2.7548 10.9264 5.26714 14.275L9.53464 20.4379C10.7277 22.1608 13.2746 22.1608 14.4676 20.4378L18.7251 14.2886C21.2476 10.9264 20.8825 5.39942 17.9445 2.46193ZM12.0788 11.3958C10.3874 11.3958 9.01066 10.0191 9.01066 8.3277C9.01066 6.6363 10.3874 5.2596 12.0788 5.2596C13.7702 5.2596 15.1469 6.6363 15.1469 8.3277C15.1469 10.0191 13.7702 11.3958 12.0788 11.3958Z" fill="#576077"/>
</svg>
