<svg width="24" height="25" viewBox="0 0 24 25" fill="none" xmlns="http://www.w3.org/2000/svg">
<path d="M16.939 3.69531C18.28 3.69531 19.57 4.22531 20.519 5.17631C21.469 6.12531 22 7.40531 22 8.74531V16.6453C22 19.4353 19.73 21.6953 16.939 21.6953H7.06C4.269 21.6953 2 19.4353 2 16.6453V8.74531C2 5.95531 4.259 3.69531 7.06 3.69531H16.939ZM18.07 8.89531C17.86 8.88431 17.66 8.95531 17.509 9.09531L13 12.6953C12.42 13.1763 11.589 13.1763 11 12.6953L6.5 9.09531C6.189 8.86531 5.759 8.89531 5.5 9.16531C5.23 9.43531 5.2 9.86531 5.429 10.1653L5.56 10.2953L10.11 13.8453C10.67 14.2853 11.349 14.5253 12.06 14.5253C12.769 14.5253 13.46 14.2853 14.019 13.8453L18.53 10.2353L18.61 10.1553C18.849 9.86531 18.849 9.44531 18.599 9.15531C18.46 9.00631 18.269 8.91531 18.07 8.89531Z" fill="#576077"/>
</svg>
