<svg width="86" height="86" viewBox="0 0 86 86" fill="none" xmlns="http://www.w3.org/2000/svg">
<path d="M81.5 27.875H32C30.906 27.875 29.8568 28.3096 29.0832 29.0832C28.3096 29.8568 27.875 30.906 27.875 32V81.5C27.875 82.594 28.3096 83.6432 29.0832 84.4168C29.8568 85.1904 30.906 85.625 32 85.625H81.5C82.594 85.625 83.6432 85.1904 84.4168 84.4168C85.1904 83.6432 85.625 82.594 85.625 81.5V32C85.625 30.906 85.1904 29.8568 84.4168 29.0832C83.6432 28.3096 82.594 27.875 81.5 27.875ZM78.75 66.375H76V78.75C76 79.1147 75.8551 79.4644 75.5973 79.7223C75.3394 79.9801 74.9897 80.125 74.625 80.125H69.125C68.7603 80.125 68.4106 79.9801 68.1527 79.7223C67.8949 79.4644 67.75 79.1147 67.75 78.75V66.375H65C64.7546 66.375 64.5136 66.3093 64.3021 66.1847C64.0906 66.0601 63.9163 65.8812 63.7974 65.6666C63.6784 65.4519 63.619 65.2093 63.6255 64.9639C63.6319 64.7185 63.7039 64.4794 63.834 64.2712L70.709 53.2712C70.8408 53.0837 71.0158 52.9307 71.2192 52.825C71.4227 52.7194 71.6485 52.6642 71.8777 52.6642C72.107 52.6642 72.3328 52.7194 72.5362 52.825C72.7397 52.9307 72.9147 53.0837 73.0465 53.2712L79.9215 64.2712C80.0518 64.4798 80.1239 64.7194 80.1301 64.9653C80.1363 65.2111 80.0764 65.4541 79.9568 65.669C79.8372 65.8838 79.6621 66.0626 79.4498 66.1868C79.2376 66.311 78.9959 66.376 78.75 66.375Z" fill="url(#paint0_linear_68_304)"/>
<path d="M67.5227 49.8946L35.7121 55.1953C34.9982 52.6077 33.3607 50.3716 31.1095 48.9099C28.8582 47.4481 26.1493 46.8622 23.4952 47.2629L12.7138 1.43688C12.6352 1.10221 12.434 0.809137 12.1499 0.615449C11.8659 0.421761 11.5196 0.341507 11.1793 0.390506L1.55431 1.76551C1.37185 1.78669 1.19548 1.84422 1.03562 1.9347C0.875767 2.02517 0.735658 2.14676 0.62357 2.29228C0.511482 2.4378 0.429687 2.60431 0.383015 2.78196C0.336344 2.95962 0.325741 3.14483 0.351834 3.32665C0.377927 3.50847 0.440186 3.68322 0.534935 3.84059C0.629684 3.99795 0.755003 4.13473 0.903491 4.24286C1.05198 4.35099 1.22063 4.42827 1.39948 4.47013C1.57833 4.512 1.76375 4.51761 1.94481 4.48663L10.3241 3.29038L20.8428 47.993C19.011 48.7671 17.4233 50.0233 16.2486 51.6279C15.074 53.2326 14.3563 55.1257 14.1719 57.1057C13.9876 59.0858 14.3435 61.0789 15.2017 62.8728C16.06 64.6667 17.3885 66.1944 19.0459 67.2933C20.7033 68.3923 22.6277 69.0213 24.6142 69.1136C26.6007 69.2059 28.5751 68.7579 30.3272 67.8173C32.0794 66.8767 33.5438 65.4788 34.5646 63.7721C35.5855 62.0655 36.1246 60.114 36.1246 58.1254C36.1246 58.0553 36.1149 57.9879 36.1136 57.9178L67.9764 52.6075C68.3362 52.5473 68.6573 52.3467 68.8691 52.0498C69.081 51.7529 69.1662 51.3839 69.106 51.0242C69.0458 50.6644 68.8452 50.3433 68.5483 50.1315C68.2514 49.9197 67.8824 49.8345 67.5227 49.8946ZM25.1246 66.3754C23.4929 66.3754 21.8978 65.8915 20.5411 64.985C19.1844 64.0785 18.127 62.79 17.5026 61.2825C16.8781 59.775 16.7148 58.1162 17.0331 56.5159C17.3514 54.9155 18.1371 53.4455 19.2909 52.2917C20.4447 51.138 21.9147 50.3522 23.5151 50.0339C25.1154 49.7156 26.7742 49.8789 28.2817 50.5034C29.7892 51.1278 31.0777 52.1852 31.9842 53.5419C32.8907 54.8986 33.3746 56.4937 33.3746 58.1254C33.3724 60.3127 32.5025 62.4099 30.9558 63.9566C29.4091 65.5033 27.3119 66.3732 25.1246 66.3754Z" fill="#0074D4"/>
<path d="M32.2744 25.0992L52.8994 20.9742C53.0765 20.9381 53.2447 20.8675 53.3945 20.7663C53.5443 20.6652 53.6727 20.5355 53.7723 20.3846C53.8719 20.2338 53.9408 20.0648 53.9751 19.8873C54.0093 19.7099 54.0082 19.5274 53.9719 19.3503L51.2219 5.60032C51.1858 5.42335 51.1152 5.25522 51.0141 5.10553C50.913 4.95585 50.7835 4.82755 50.6328 4.72795C50.4821 4.62835 50.3133 4.55942 50.136 4.52508C49.9587 4.49074 49.7763 4.49167 49.5994 4.52782L28.9743 8.65282C28.7974 8.6889 28.6292 8.7595 28.4796 8.86057C28.3299 8.96164 28.2016 9.09122 28.102 9.24189C28.0024 9.39256 27.9334 9.56138 27.8991 9.7387C27.8648 9.91602 27.8657 10.0984 27.9018 10.2753L30.6518 24.0253C30.6878 24.2024 30.7583 24.3707 30.8593 24.5205C30.9603 24.6704 31.0898 24.7988 31.2405 24.8986C31.3912 24.9983 31.5601 25.0674 31.7375 25.1018C31.9149 25.1362 32.0973 25.1353 32.2744 25.0992ZM48.8005 7.4992L51.0115 18.5528L33.0787 22.1333L30.8677 11.0797L48.8005 7.4992Z" fill="#0074D4"/>
<path d="M66.3516 23.4973C66.2846 23.1422 66.0807 22.8278 65.7837 22.6219C65.4868 22.4161 65.1208 22.3354 64.7648 22.3973L33.1398 27.8973C32.9604 27.9286 32.789 27.9952 32.6356 28.0932C32.4821 28.1913 32.3497 28.3189 32.2459 28.4685C32.1422 28.6182 32.0692 28.787 32.0312 28.9651C31.9932 29.1432 31.991 29.3271 32.0247 29.506L36.1497 51.506C36.2092 51.8206 36.3767 52.1046 36.6232 52.3089C36.8697 52.5132 37.1798 52.6251 37.4999 52.6253C37.5791 52.625 37.6582 52.6185 37.7364 52.606L69.3614 47.106C69.541 47.0749 69.7125 47.0084 69.8661 46.9104C70.0197 46.8124 70.1523 46.6849 70.2562 46.5352C70.3601 46.3855 70.4332 46.2167 70.4712 46.0385C70.5093 45.8603 70.5116 45.6763 70.4779 45.4973L66.3516 23.4973ZM38.5999 49.6635L34.9823 30.3668L63.8999 25.3384L67.5189 44.6352L38.5999 49.6635Z" fill="#0074D4"/>
<defs>
<linearGradient id="paint0_linear_68_304" x1="56.75" y1="27.875" x2="56.75" y2="85.625" gradientUnits="userSpaceOnUse">
<stop stop-color="#EEF2F5"/>
<stop offset="1" stop-color="#FAFBFC"/>
</linearGradient>
</defs>
</svg>
