<svg width="88" height="88" viewBox="0 0 88 88" fill="none" xmlns="http://www.w3.org/2000/svg">
<path d="M79.75 74.25H78.9717L77.022 45.65L80.9875 37.7396C81.0803 37.5481 81.1273 37.3378 81.125 37.125V19.25C81.125 18.8853 80.9801 18.5356 80.7223 18.2777C80.4644 18.0199 80.1147 17.875 79.75 17.875H70.125C69.7603 17.875 69.4106 18.0199 69.1527 18.2777C68.8949 18.5356 68.75 18.8853 68.75 19.25V24.75H66V19.25C66 18.8853 65.8551 18.5356 65.5973 18.2777C65.3394 18.0199 64.9897 17.875 64.625 17.875H55C54.6353 17.875 54.2856 18.0199 54.0277 18.2777C53.7699 18.5356 53.625 18.8853 53.625 19.25V24.75H50.875V19.25C50.875 18.8853 50.7301 18.5356 50.4723 18.2777C50.2144 18.0199 49.8647 17.875 49.5 17.875H39.875C39.5103 17.875 39.1606 18.0199 38.9027 18.2777C38.6449 18.5356 38.5 18.8853 38.5 19.25V37.125C38.4998 37.3383 38.5492 37.5487 38.6444 37.7396L42.603 45.65L40.6532 74.25H39.875C38.781 74.25 37.7318 74.6846 36.9582 75.4582C36.1846 76.2318 35.75 77.281 35.75 78.375V85.25C35.75 85.6147 35.8949 85.9644 36.1527 86.2223C36.4106 86.4801 36.7603 86.625 37.125 86.625H82.5C82.8647 86.625 83.2144 86.4801 83.4723 86.2223C83.7301 85.9644 83.875 85.6147 83.875 85.25V78.375C83.875 77.281 83.4404 76.2318 82.6668 75.4582C81.8932 74.6846 80.844 74.25 79.75 74.25ZM78.2127 37.125L74.7752 44H44.8498L41.4123 37.125H78.2127ZM81.125 83.875H38.5V78.375C38.5 78.0103 38.6449 77.6606 38.9027 77.4027C39.1606 77.1449 39.5103 77 39.875 77H79.75C80.1147 77 80.4644 77.1449 80.7223 77.4027C80.9801 77.6606 81.125 78.0103 81.125 78.375V83.875Z" fill="url(#paint0_linear_68_314)"/>
<path d="M48.125 55V53.8368C48.1247 51.6499 47.5306 49.5042 46.4062 47.6286C45.6953 46.4484 45.256 45.1248 45.1202 43.7537C44.9844 42.3826 45.1555 40.9985 45.6211 39.7018L47.2986 35.0034C48.3754 31.9882 48.8305 28.7862 48.6365 25.5904C48.4425 22.3946 47.6034 19.2711 46.1698 16.4083C44.7362 13.5455 42.7378 11.0027 40.2951 8.93296C37.8523 6.86325 35.0157 5.30959 31.9564 4.36562C22.2626 1.375 22.2626 1.375 22 1.375C21.6353 1.375 21.2856 1.51987 21.0277 1.77773C20.7699 2.03559 20.625 2.38533 20.625 2.75V7.53363C18.9021 8.73813 13.7651 12.3269 10.45 14.6066C9.34257 15.3722 8.43696 16.3946 7.81057 17.5863C7.18418 18.778 6.85563 20.1037 6.853 21.45C6.84593 22.0805 6.96614 22.7059 7.20643 23.2889C7.44673 23.8718 7.80216 24.4003 8.25147 24.8427C8.70078 25.2851 9.23472 25.6322 9.82134 25.8635C10.408 26.0947 11.0352 26.2051 11.6655 26.1882C12.559 26.19 13.4346 25.937 14.1895 25.4589C14.9444 24.9809 15.5475 24.2976 15.928 23.4891L20.504 24.0611C21.7057 24.2105 22.925 24.007 24.013 23.4754C24.2688 24.8261 24.1631 26.2204 23.7064 27.5171C23.2498 28.8138 22.4586 29.9667 21.4129 30.8591L14.586 36.6341C12.6002 38.3097 11.0044 40.3987 9.90999 42.7551C8.81559 45.1116 8.24906 47.6787 8.25 50.2769V55C7.15598 55 6.10677 55.4346 5.33318 56.2082C4.5596 56.9818 4.125 58.031 4.125 59.125V66C4.125 66.3647 4.26987 66.7144 4.52773 66.9723C4.78559 67.2301 5.13533 67.375 5.5 67.375H50.875C51.2397 67.375 51.5894 67.2301 51.8473 66.9723C52.1051 66.7144 52.25 66.3647 52.25 66V59.125C52.25 58.031 51.8154 56.9818 51.0418 56.2082C50.2682 55.4346 49.219 55 48.125 55ZM43.0746 16.4629C44.6172 19.1014 45.5628 22.0459 45.8451 25.0893C46.1273 28.1326 45.7392 31.2008 44.7081 34.078L43.0375 38.775C42.4343 40.4546 42.2127 42.2474 42.3887 44.0233C42.5647 45.7992 43.1339 47.5136 44.055 49.0421C44.921 50.4913 45.3773 52.1485 45.375 53.8368V55H42.625C42.6567 53.051 42.2201 51.1228 41.3517 49.3776C41.0767 48.5155 38.2346 44.9446 40.1019 40.0923L42.0104 35.1299C42.9837 32.598 43.4338 29.8951 43.3335 27.1844C43.2333 24.4737 42.5847 21.8115 41.427 19.3584C40.2693 16.9054 38.6264 14.7124 36.5976 12.9118C34.5689 11.1113 32.1962 9.74061 29.623 8.8825L28.6303 8.5525L27.9235 5.99913L31.1451 6.99325C36.1705 8.53822 40.4297 11.9192 43.0746 16.4629ZM11 50.2769C10.9977 48.0778 11.4757 45.9048 12.4008 43.9097C13.3259 41.9147 14.6756 40.1459 16.3556 38.7269L23.1825 32.9519C24.7909 31.5787 25.9503 29.7545 26.5107 27.7153C27.0711 25.676 27.0066 23.5155 26.3258 21.5133C27.0882 20.4532 27.4989 19.1807 27.5 17.875C27.5 17.5103 27.3551 17.1606 27.0973 16.9027C26.8394 16.6449 26.4897 16.5 26.125 16.5C25.7603 16.5 25.4106 16.6449 25.1527 16.9027C24.8949 17.1606 24.75 17.5103 24.75 17.875C24.7499 18.3685 24.6449 18.8563 24.4419 19.3061C24.239 19.7559 23.9427 20.1574 23.5728 20.484C23.2029 20.8106 22.7678 21.0548 22.2963 21.2005C21.8249 21.3462 21.3278 21.39 20.8381 21.329L16.2621 20.7625C15.6858 20.6939 15.1024 20.8079 14.5943 21.0884C14.0861 21.3688 13.6788 21.8017 13.4296 22.3259C13.2699 22.674 13.0095 22.9663 12.6821 23.1651C12.3547 23.3639 11.9752 23.46 11.5926 23.441C11.3225 23.4485 11.0538 23.3995 10.8038 23.2971C10.5537 23.1946 10.3278 23.0411 10.1406 22.8462C9.95342 22.6514 9.80901 22.4195 9.71666 22.1656C9.62431 21.9117 9.58606 21.6412 9.60438 21.3716C9.61512 20.4855 9.8384 19.6149 10.2554 18.833C10.6725 18.0511 11.2711 17.3807 12.001 16.8781C16.0476 14.0992 22.7879 9.38163 22.7879 9.38163C22.9698 9.25441 23.1183 9.08504 23.2205 8.88797C23.3228 8.6909 23.3758 8.47201 23.375 8.25V4.60212L24.8036 5.03937L26.1786 9.98938C26.2388 10.2068 26.3516 10.406 26.507 10.5696C26.6623 10.7331 26.8556 10.8559 27.0696 10.9271L28.7581 11.4895C30.9786 12.2302 33.0259 13.4132 34.7765 14.967C36.5271 16.5208 37.9447 18.4133 38.9437 20.5301C39.9427 22.647 40.5023 24.9443 40.5889 27.2834C40.6755 29.6226 40.2872 31.955 39.4474 34.1399L37.5375 39.105C35.2 45.2004 38.654 49.83 38.8946 50.6069C39.5707 51.9708 39.9071 53.478 39.875 55H11V50.2769ZM49.5 64.625H6.875V59.125C6.875 58.7603 7.01987 58.4106 7.27773 58.1527C7.53559 57.8949 7.88533 57.75 8.25 57.75H48.125C48.4897 57.75 48.8394 57.8949 49.0973 58.1527C49.3551 58.4106 49.5 58.7603 49.5 59.125V64.625Z" fill="#0074D4"/>
<defs>
<linearGradient id="paint0_linear_68_314" x1="59.8125" y1="17.875" x2="59.8125" y2="86.625" gradientUnits="userSpaceOnUse">
<stop stop-color="#EEF2F5"/>
<stop offset="1" stop-color="#FAFBFC"/>
</linearGradient>
</defs>
</svg>
