<svg width="88" height="88" viewBox="0 0 88 88" fill="none" xmlns="http://www.w3.org/2000/svg">
<path d="M84.4269 78.257C84.2511 78.3347 84.0611 78.3748 83.869 78.3748C83.6768 78.3748 83.4868 78.3347 83.311 78.257L77.6747 75.7547L72.0438 78.257C71.8679 78.3349 71.6776 78.3751 71.4852 78.375C71.2927 78.3748 71.1025 78.3344 70.9266 78.2563L65.3011 75.7547L59.6762 78.2563C59.5004 78.3346 59.3101 78.3751 59.1176 78.3751C58.9251 78.3751 58.7348 78.3346 58.559 78.2563L52.9328 75.7547L47.3059 78.2563C47.1301 78.3346 46.9398 78.3751 46.7473 78.3751C46.5548 78.3751 46.3645 78.3346 46.1887 78.2563L44.6875 77.5888V82.5001C44.6887 83.5938 45.1237 84.6423 45.897 85.4156C46.6703 86.1889 47.7188 86.6239 48.8125 86.6251H81.8125C82.9062 86.6239 83.9547 86.1889 84.728 85.4156C85.5013 84.6423 85.9363 83.5938 85.9375 82.5001V77.5863L84.4269 78.257Z" fill="url(#paint0_linear_68_321)"/>
<path d="M84.21 46.1835L67.7107 34.3986C67.0112 33.8985 66.1729 33.6295 65.3129 33.6294C64.453 33.6293 63.6146 33.898 62.915 34.398L46.415 46.1835L46.4143 46.1842C45.8808 46.5664 45.4459 47.0701 45.1456 47.6538C44.8453 48.2374 44.6883 48.8841 44.6875 49.5404V71.8297L46.7473 72.7456L52.3741 70.244C52.5499 70.1656 52.7403 70.1251 52.9327 70.1251C53.1252 70.1251 53.3155 70.1656 53.4913 70.244L59.1175 72.7456L64.7424 70.244C64.9182 70.1656 65.1085 70.1251 65.301 70.1251C65.4935 70.1251 65.6838 70.1656 65.8596 70.244L71.4852 72.7456L77.1161 70.2433C77.2919 70.1656 77.4821 70.1255 77.6743 70.1255C77.8666 70.1255 78.0567 70.1656 78.2326 70.2433L83.8689 72.7456L85.9374 71.827V49.5404C85.9366 48.8839 85.7795 48.2371 85.4791 47.6533C85.1787 47.0696 84.7437 46.5658 84.21 46.1835ZM65.3125 39.8751C66.2643 39.8751 67.1948 40.1574 67.9862 40.6862C68.7776 41.215 69.3944 41.9666 69.7587 42.846C70.1229 43.7253 70.2182 44.693 70.0325 45.6265C69.8468 46.56 69.3885 47.4175 68.7155 48.0906C68.0424 48.7636 67.1849 49.222 66.2514 49.4077C65.3178 49.5934 64.3502 49.4981 63.4708 49.1338C62.5915 48.7696 61.8399 48.1527 61.3111 47.3613C60.7822 46.5699 60.5 45.6395 60.5 44.6876C60.5015 43.4118 61.0091 42.1886 61.9113 41.2864C62.8134 40.3842 64.0366 39.8767 65.3125 39.8751ZM79.0625 66.0001H51.5625C51.1978 66.0001 50.8481 65.8553 50.5902 65.5974C50.3324 65.3395 50.1875 64.9898 50.1875 64.6251C50.1875 64.2605 50.3324 63.9107 50.5902 63.6529C50.8481 63.395 51.1978 63.2501 51.5625 63.2501H79.0625C79.4272 63.2501 79.7769 63.395 80.0348 63.6529C80.2926 63.9107 80.4375 64.2605 80.4375 64.6251C80.4375 64.9898 80.2926 65.3395 80.0348 65.5974C79.7769 65.8553 79.4272 66.0001 79.0625 66.0001ZM79.0625 57.7501H51.5625C51.1978 57.7501 50.8481 57.6053 50.5902 57.3474C50.3324 57.0895 50.1875 56.7398 50.1875 56.3751C50.1875 56.0105 50.3324 55.6607 50.5902 55.4029C50.8481 55.145 51.1978 55.0001 51.5625 55.0001H79.0625C79.4272 55.0001 79.7769 55.145 80.0348 55.4029C80.2926 55.6607 80.4375 56.0105 80.4375 56.3751C80.4375 56.7398 80.2926 57.0895 80.0348 57.3474C79.7769 57.6053 79.4272 57.7501 79.0625 57.7501Z" fill="url(#paint1_linear_68_321)"/>
<path d="M67.4571 32.776C68.2641 30.2947 68.2679 27.6222 67.4682 25.1386C66.6684 22.6551 65.1057 20.487 63.0025 18.9429C61.3669 17.7469 60.1538 16.062 59.5384 14.1315C58.7539 11.653 57.2008 9.48848 55.1041 7.95149C53.0074 6.41451 50.4759 5.58481 47.8762 5.58254C45.8589 5.58589 43.8937 4.94167 42.2699 3.74468C40.1822 2.20512 37.6564 1.37451 35.0624 1.37451C32.4684 1.37451 29.9425 2.20512 27.8548 3.74468C26.231 4.94167 24.2659 5.58589 22.2486 5.58254C19.6489 5.58481 17.1173 6.41451 15.0206 7.95149C12.9239 9.48848 11.3709 11.653 10.5864 14.1315C9.9709 16.062 8.75782 17.7469 7.12227 18.9429C5.01905 20.487 3.45638 22.6551 2.6566 25.1386C1.85681 27.6222 1.86067 30.2947 2.66762 32.776C3.2943 34.7088 3.2943 36.7903 2.66762 38.7232C1.86067 41.2044 1.85681 43.8769 2.6566 46.3605C3.45638 48.8441 5.01905 51.0121 7.12227 52.5562C8.75782 53.7523 9.9709 55.4372 10.5864 57.3677C11.3709 59.8462 12.9239 62.0107 15.0206 63.5476C17.1173 65.0846 19.6489 65.9143 22.2486 65.9166C24.2659 65.9133 26.231 66.5575 27.8548 67.7545C29.9425 69.294 32.4684 70.1246 35.0624 70.1246C37.6564 70.1246 40.1822 69.294 42.2699 67.7545C43.8937 66.5575 45.8589 65.9133 47.8762 65.9166C50.4759 65.9143 53.0074 65.0846 55.1041 63.5476C57.2008 62.0107 58.7539 59.8462 59.5384 57.3677C60.1538 55.4372 61.3669 53.7523 63.0025 52.5562C65.1057 51.0121 66.6684 48.8441 67.4681 46.3605C68.2679 43.877 68.2641 41.2045 67.4571 38.7232C66.8304 36.7903 66.8304 34.7089 67.4571 32.776ZM64.8653 39.573C65.4929 41.5028 65.4959 43.5814 64.8739 45.513C64.2518 47.4446 63.0364 49.1308 61.4005 50.3316C59.2979 51.8697 57.7382 54.0359 56.9465 56.5178C56.3364 58.4455 55.1285 60.1289 53.4978 61.3244C51.867 62.5198 49.8982 63.1652 47.8762 63.1671C45.2824 63.1626 42.7558 63.9908 40.668 65.5299C39.0443 66.7273 37.0799 67.3734 35.0624 67.3734C33.0449 67.3734 31.0804 66.7273 29.4568 65.5299C27.369 63.9908 24.8423 63.1626 22.2486 63.1671C20.2266 63.1652 18.2577 62.5198 16.627 61.3244C14.9963 60.1289 13.7884 58.4455 13.1783 56.5178C12.3866 54.0359 10.8269 51.8697 8.72427 50.3316C7.0884 49.1308 5.87295 47.4446 5.25089 45.513C4.62883 43.5814 4.63185 41.5028 5.25952 39.573C6.0645 37.0876 6.0645 34.4116 5.25952 31.9262C4.63185 29.9964 4.62882 27.9178 5.25088 25.9862C5.87294 24.0546 7.08838 22.3684 8.72424 21.1675C10.8269 19.6295 12.3865 17.4633 13.1782 14.9814C13.7884 13.0537 14.9963 11.3702 16.627 10.1748C18.2577 8.97931 20.2266 8.33393 22.2486 8.33207C24.8423 8.33658 27.369 7.50836 29.4568 5.9693C31.0803 4.77161 33.0448 4.12541 35.0624 4.12541C37.0799 4.12541 39.0444 4.77161 40.668 5.9693C42.7557 7.50836 45.2824 8.33658 47.8762 8.33207C49.8981 8.33393 51.867 8.97932 53.4977 10.1748C55.1285 11.3702 56.3363 13.0537 56.9465 14.9814C57.7382 17.4633 59.2979 19.6295 61.4005 21.1675C63.0364 22.3684 64.2518 24.0546 64.8739 25.9862C65.4959 27.9178 65.4929 29.9964 64.8652 31.9262C64.0602 34.4116 64.0602 37.0876 64.8652 39.573H64.8653Z" fill="#0074D4"/>
<path d="M28.0814 52.7053C28.2467 52.7751 28.4241 52.8114 28.6035 52.8122C28.7829 52.813 28.9607 52.7782 29.1266 52.7099C29.2924 52.6415 29.4431 52.541 29.5698 52.414C29.6966 52.287 29.7969 52.1362 29.865 51.9702L43.2024 19.905C43.3427 19.5696 43.3449 19.1923 43.2084 18.8553C43.072 18.5183 42.808 18.2488 42.4739 18.1054C42.3087 18.0354 42.1312 17.9989 41.9517 17.9981C41.7723 17.9972 41.5945 18.0319 41.4286 18.1003C41.2627 18.1687 41.112 18.2693 40.9852 18.3963C40.8585 18.5234 40.7583 18.6743 40.6903 18.8404L27.3529 50.9057C27.2126 51.2411 27.2104 51.6183 27.3469 51.9554C27.4833 52.2924 27.7473 52.5619 28.0814 52.7053Z" fill="#0074D4"/>
<path d="M26.0562 33.0722C30.0572 33.0722 33.3117 29.3562 33.3117 24.7884C33.3117 20.2206 30.0572 16.5039 26.0562 16.5039C22.0553 16.5039 18.8008 20.2205 18.8008 24.7884C18.8008 29.3562 22.0553 33.0722 26.0562 33.0722ZM26.0562 19.2533C28.5543 19.2533 30.5867 21.7363 30.5867 24.7884C30.5867 27.8399 28.5543 30.3228 26.0562 30.3228C23.5581 30.3228 21.5257 27.8399 21.5257 24.7884C21.5257 21.7363 23.5581 19.2533 26.0562 19.2533Z" fill="#0074D4"/>
<path d="M44.0689 38.4272C40.068 38.4272 36.8135 42.1432 36.8135 46.711C36.8135 51.2788 40.068 54.9955 44.0689 54.9955C48.0699 54.9955 51.3244 51.2789 51.3244 46.711C51.3244 42.1432 48.0699 38.4272 44.0689 38.4272ZM44.0689 52.2461C41.5708 52.2461 39.5384 49.7632 39.5384 46.711C39.5384 43.6596 41.5708 41.1767 44.0689 41.1767C46.567 41.1767 48.5994 43.6596 48.5994 46.711C48.5994 49.7632 46.567 52.2461 44.0689 52.2461Z" fill="#0074D4"/>
<path d="M35.0625 9.63037C34.6999 9.63341 34.3531 9.77958 34.0978 10.0371C33.8425 10.2945 33.6992 10.6425 33.6992 11.0051C33.6992 11.3677 33.8425 11.7156 34.0978 11.9731C34.3531 12.2306 34.6999 12.3767 35.0625 12.3798C41.2308 12.4143 47.1336 14.8943 51.4758 19.2754C55.818 23.6566 58.2451 29.5813 58.2246 35.7498C58.223 35.9297 58.257 36.1082 58.3247 36.2749C58.3925 36.4417 58.4926 36.5933 58.6193 36.7211C58.7459 36.8489 58.8967 36.9504 59.0628 37.0196C59.2289 37.0889 59.4071 37.1245 59.587 37.1245C59.767 37.1245 59.9452 37.0889 60.1113 37.0196C60.2774 36.9504 60.4281 36.8489 60.5548 36.7211C60.6815 36.5933 60.7816 36.4417 60.8493 36.2749C60.9171 36.1082 60.9511 35.9297 60.9495 35.7498C60.9724 28.8557 58.2597 22.234 53.4067 17.3374C48.5536 12.4408 41.9565 9.66913 35.0625 9.63037Z" fill="#0074D4"/>
<path d="M35.062 59.1198C28.8936 59.0852 22.9909 56.6053 18.6486 52.2241C14.3064 47.8429 11.8793 41.9182 11.8999 35.7498C11.9015 35.5698 11.8675 35.3913 11.7997 35.2246C11.732 35.0579 11.6319 34.9062 11.5052 34.7784C11.3785 34.6506 11.2278 34.5491 11.0617 34.4799C10.8956 34.4107 10.7174 34.375 10.5374 34.375C10.3575 34.375 10.1793 34.4107 10.0132 34.4799C9.84707 34.5491 9.69633 34.6506 9.56965 34.7784C9.44297 34.9062 9.34287 35.0579 9.27512 35.2246C9.20738 35.3913 9.17333 35.5698 9.17495 35.7498C9.15211 42.6438 11.8648 49.2655 16.7178 54.1621C21.5709 59.0587 28.168 61.8304 35.062 61.8692C35.4246 61.8661 35.7713 61.72 36.0267 61.4625C36.282 61.205 36.4253 60.8571 36.4253 60.4945C36.4253 60.1318 36.282 59.7839 36.0267 59.5264C35.7713 59.269 35.4246 59.1228 35.062 59.1198Z" fill="#0074D4"/>
<defs>
<linearGradient id="paint0_linear_68_321" x1="65.3125" y1="33.6294" x2="65.3125" y2="86.6251" gradientUnits="userSpaceOnUse">
<stop stop-color="#EEF2F5"/>
<stop offset="1" stop-color="#FAFBFC"/>
</linearGradient>
<linearGradient id="paint1_linear_68_321" x1="65.3125" y1="33.6294" x2="65.3125" y2="86.6251" gradientUnits="userSpaceOnUse">
<stop stop-color="#EEF2F5"/>
<stop offset="1" stop-color="#FAFBFC"/>
</linearGradient>
</defs>
</svg>
