<svg width="34" height="34" viewBox="0 0 34 34" fill="none" xmlns="http://www.w3.org/2000/svg">
<g clip-path="url(#clip0_68_390)">
<path d="M23.313 14.1063C23.0385 13.7076 22.5146 13.6132 22.1219 13.8777C21.7292 14.1422 21.6239 14.6785 21.8871 15.0703C22.6808 16.2484 22.6789 17.7728 21.8825 18.955L21.8818 18.9557C21.652 19.2954 21.6957 19.7531 21.9844 20.0419C22.0231 20.0806 22.0654 20.1158 22.1119 20.1482C22.5051 20.4099 23.0406 20.3053 23.3058 19.9119C24.4954 18.1463 24.4993 15.8679 23.313 14.1063Z" fill="#959AAE"/>
<path d="M25.7321 11.6012C25.597 11.4209 25.3919 11.3091 25.1655 11.2833C24.9342 11.2555 24.7062 11.3215 24.524 11.4686C24.1538 11.7641 24.0929 12.3052 24.3879 12.675C26.4243 15.223 26.4203 18.7903 24.3787 21.3474C24.1051 21.69 24.1311 22.1809 24.4395 22.4894C24.4627 22.5126 24.4867 22.5337 24.5128 22.5541C24.6917 22.6977 24.9152 22.7616 25.1438 22.7358C25.3717 22.7093 25.5757 22.5968 25.7192 22.4166C28.267 19.2266 28.2732 14.7797 25.7321 11.6012Z" fill="#959AAE"/>
<path fill-rule="evenodd" clip-rule="evenodd" d="M15.6278 17.0026C15.6286 22.6433 19.5309 20.0208 19.5321 23.6115C19.5326 27.0739 20.1809 28.4158 15.7941 28.4152C15.2985 28.3613 10.8959 29.2722 10.8942 17.0027C10.8925 4.73179 15.2953 5.63937 15.7909 5.58555C20.1891 5.58541 19.529 6.92716 19.5295 10.3896C19.53 13.981 15.627 11.362 15.6278 17.0026Z" fill="#959AAE"/>
</g>
<defs>
<clipPath id="clip0_68_390">
<rect width="24" height="24" fill="white" transform="translate(17 0.0292969) rotate(45)"/>
</clipPath>
</defs>
</svg>
