<svg width="184" height="41" viewBox="0 0 184 41" fill="none" xmlns="http://www.w3.org/2000/svg">
<path d="M42.6523 37L40.1523 33.6619H39.2575V37H38.3768V29.7273H39.2575V32.8807H39.641L42.5529 29.7273H43.604L40.6637 32.9233L43.7035 37H42.6523ZM45.8416 37V29.7273H48.299C48.8696 29.7273 49.3359 29.8303 49.6982 30.0362C50.0627 30.2398 50.3326 30.5156 50.5078 30.8636C50.683 31.2116 50.7706 31.5999 50.7706 32.0284C50.7706 32.4569 50.683 32.8464 50.5078 33.1967C50.335 33.5471 50.0675 33.8265 49.7053 34.0348C49.343 34.2408 48.879 34.3438 48.3132 34.3438H46.5518V33.5625H48.2848C48.6754 33.5625 48.9891 33.495 49.2259 33.3601C49.4626 33.2251 49.6342 33.0429 49.7408 32.8132C49.8497 32.5812 49.9041 32.3196 49.9041 32.0284C49.9041 31.7372 49.8497 31.4768 49.7408 31.2472C49.6342 31.0175 49.4614 30.8376 49.2223 30.7074C48.9832 30.5748 48.666 30.5085 48.2706 30.5085H46.7223V37H45.8416ZM53.1893 37V29.7273H57.5785V30.5085H54.07V32.9659H57.3512V33.7472H54.07V36.2188H57.6353V37H53.1893ZM66.0181 32H65.1374C65.0853 31.7467 64.9942 31.5241 64.864 31.3324C64.7362 31.1406 64.5799 30.9796 64.3952 30.8494C64.2129 30.7169 64.0105 30.6174 63.788 30.5511C63.5655 30.4848 63.3335 30.4517 63.092 30.4517C62.6516 30.4517 62.2527 30.563 61.8952 30.7855C61.5401 31.008 61.2572 31.3359 61.0465 31.7692C60.8382 32.2024 60.734 32.7339 60.734 33.3636C60.734 33.9934 60.8382 34.5249 61.0465 34.9581C61.2572 35.3913 61.5401 35.7192 61.8952 35.9418C62.2527 36.1643 62.6516 36.2756 63.092 36.2756C63.3335 36.2756 63.5655 36.2424 63.788 36.1761C64.0105 36.1098 64.2129 36.0116 64.3952 35.8814C64.5799 35.7488 64.7362 35.5866 64.864 35.3949C64.9942 35.2008 65.0853 34.9782 65.1374 34.7273H66.0181C65.9518 35.099 65.8311 35.4316 65.6559 35.7251C65.4807 36.0187 65.2629 36.2685 65.0025 36.4744C64.7421 36.678 64.4497 36.8331 64.1254 36.9396C63.8034 37.0462 63.4589 37.0994 63.092 37.0994C62.4717 37.0994 61.9201 36.9479 61.4371 36.6449C60.9542 36.3419 60.5742 35.911 60.2972 35.3523C60.0202 34.7936 59.8817 34.1307 59.8817 33.3636C59.8817 32.5966 60.0202 31.9337 60.2972 31.375C60.5742 30.8163 60.9542 30.3854 61.4371 30.0824C61.9201 29.7794 62.4717 29.6278 63.092 29.6278C63.4589 29.6278 63.8034 29.6811 64.1254 29.7876C64.4497 29.8942 64.7421 30.0504 65.0025 30.2564C65.2629 30.46 65.4807 30.7086 65.6559 31.0021C65.8311 31.2933 65.9518 31.6259 66.0181 32ZM67.8162 37V36.1903H68.0293C68.3323 36.1903 68.5679 36.0933 68.736 35.8991C68.9041 35.705 69.0248 35.3913 69.0982 34.9581C69.1739 34.5249 69.2248 33.9508 69.2509 33.2358L69.3787 29.7273H73.8105V37H72.9299V30.5085H70.2168L70.1032 33.4062C70.0748 34.1686 70.0049 34.8172 69.8936 35.3523C69.7824 35.8873 69.5871 36.2957 69.3077 36.5774C69.0283 36.8591 68.6212 37 68.0861 37H67.8162ZM76.8684 37H75.9451L78.6156 29.7273H79.5247L82.1951 37H81.2718L79.0985 30.8778H79.0417L76.8684 37ZM77.2093 34.1591H80.9309V34.9403H77.2093V34.1591ZM92.1177 31.5455C92.0751 31.1856 91.9023 30.9062 91.5993 30.7074C91.2962 30.5085 90.9245 30.4091 90.4842 30.4091C90.1622 30.4091 89.8805 30.4612 89.639 30.5653C89.3999 30.6695 89.2129 30.8127 89.0779 30.995C88.9454 31.1773 88.8791 31.3845 88.8791 31.6165C88.8791 31.8106 88.9252 31.9775 89.0176 32.1172C89.1123 32.2545 89.233 32.3693 89.3798 32.4616C89.5266 32.5516 89.6805 32.6262 89.8414 32.6854C90.0024 32.7422 90.1504 32.7884 90.2853 32.8239L91.024 33.0227C91.2134 33.0724 91.4241 33.1411 91.6561 33.2287C91.8904 33.3163 92.1142 33.4358 92.3272 33.5874C92.5427 33.7365 92.7202 33.9283 92.8599 34.1626C92.9996 34.397 93.0694 34.6847 93.0694 35.0256C93.0694 35.4186 92.9664 35.7737 92.7605 36.0909C92.5569 36.4081 92.2586 36.6603 91.8656 36.8473C91.475 37.0343 91.0003 37.1278 90.4416 37.1278C89.9208 37.1278 89.4698 37.0438 89.0886 36.8757C88.7098 36.7076 88.4115 36.4732 88.1937 36.1726C87.9783 35.8719 87.8564 35.5227 87.8279 35.125H88.737C88.7607 35.3996 88.853 35.6269 89.014 35.8068C89.1774 35.9844 89.3833 36.117 89.6319 36.2045C89.8829 36.2898 90.1528 36.3324 90.4416 36.3324C90.7778 36.3324 91.0796 36.2779 91.3471 36.169C91.6146 36.0578 91.8265 35.9039 91.9828 35.7074C92.139 35.5085 92.2172 35.2765 92.2172 35.0114C92.2172 34.7699 92.1497 34.5734 92.0147 34.4219C91.8798 34.2704 91.7022 34.1473 91.4821 34.0526C91.2619 33.9579 91.024 33.875 90.7683 33.804L89.8734 33.5483C89.3052 33.3849 88.8554 33.1518 88.524 32.8487C88.1925 32.5457 88.0268 32.1491 88.0268 31.6591C88.0268 31.2519 88.1369 30.8968 88.3571 30.5938C88.5796 30.2884 88.8779 30.0516 89.252 29.8835C89.6284 29.7131 90.0486 29.6278 90.5126 29.6278C90.9814 29.6278 91.398 29.7119 91.7626 29.88C92.1272 30.0457 92.416 30.273 92.6291 30.5618C92.8445 30.8506 92.9582 31.1785 92.97 31.5455H92.1177ZM95.8157 37H94.8924L97.5629 29.7273H98.4719L101.142 37H100.219L98.0458 30.8778H97.989L95.8157 37ZM96.1566 34.1591H99.8782V34.9403H96.1566V34.1591ZM103.275 29.7273H104.326L106.798 35.7642H106.883L109.355 29.7273H110.406V37H109.582V31.4744H109.511L107.238 37H106.443L104.17 31.4744H104.099V37H103.275V29.7273ZM117.944 29.7273H118.825V34.5426C118.825 35.0398 118.708 35.4837 118.474 35.8743C118.242 36.2625 117.914 36.5691 117.49 36.794C117.066 37.0166 116.569 37.1278 115.998 37.1278C115.428 37.1278 114.931 37.0166 114.507 36.794C114.083 36.5691 113.754 36.2625 113.52 35.8743C113.288 35.4837 113.172 35.0398 113.172 34.5426V29.7273H114.052V34.4716C114.052 34.8267 114.131 35.1428 114.287 35.4197C114.443 35.6944 114.666 35.911 114.954 36.0696C115.246 36.2259 115.594 36.304 115.998 36.304C116.403 36.304 116.751 36.2259 117.042 36.0696C117.334 35.911 117.556 35.6944 117.71 35.4197C117.866 35.1428 117.944 34.8267 117.944 34.4716V29.7273ZM121.584 37V29.7273H124.041C124.609 29.7273 125.076 29.8243 125.44 30.0185C125.805 30.2102 126.075 30.4742 126.25 30.8104C126.425 31.1465 126.513 31.5289 126.513 31.9574C126.513 32.3859 126.425 32.7659 126.25 33.0973C126.075 33.4287 125.806 33.6892 125.444 33.8786C125.082 34.0656 124.619 34.1591 124.055 34.1591H122.067V33.3636H124.027C124.415 33.3636 124.728 33.3068 124.964 33.1932C125.204 33.0795 125.376 32.9186 125.483 32.7102C125.592 32.4995 125.646 32.2486 125.646 31.9574C125.646 31.6662 125.592 31.4117 125.483 31.1939C125.374 30.9761 125.2 30.808 124.961 30.6896C124.722 30.5689 124.406 30.5085 124.013 30.5085H122.464V37H121.584ZM125.007 33.733L126.797 37H125.774L124.013 33.733H125.007ZM129.279 37H128.355L131.026 29.7273H131.935L134.605 37H133.682L131.509 30.8778H131.452L129.279 37ZM129.619 34.1591H133.341V34.9403H129.619V34.1591ZM137.619 29.7273V37H136.738V29.7273H137.619Z" fill="#959AAE"/>
<path d="M52.875 14C52.875 15.724 52.5521 17.2005 51.9062 18.4297C51.2656 19.6536 50.3906 20.5911 49.2812 21.2422C48.1771 21.8932 46.9245 22.2187 45.5234 22.2187C44.1224 22.2187 42.8672 21.8932 41.7578 21.2422C40.6536 20.5859 39.7786 19.6458 39.1328 18.4219C38.4922 17.1927 38.1719 15.7187 38.1719 14C38.1719 12.276 38.4922 10.8021 39.1328 9.57812C39.7786 8.34896 40.6536 7.40885 41.7578 6.75781C42.8672 6.10677 44.1224 5.78125 45.5234 5.78125C46.9245 5.78125 48.1771 6.10677 49.2812 6.75781C50.3906 7.40885 51.2656 8.34896 51.9062 9.57812C52.5521 10.8021 52.875 12.276 52.875 14ZM49.9609 14C49.9609 12.7865 49.7708 11.763 49.3906 10.9297C49.0156 10.0911 48.4948 9.45833 47.8281 9.03125C47.1615 8.59896 46.3932 8.38281 45.5234 8.38281C44.6536 8.38281 43.8854 8.59896 43.2188 9.03125C42.5521 9.45833 42.0286 10.0911 41.6484 10.9297C41.2734 11.763 41.0859 12.7865 41.0859 14C41.0859 15.2135 41.2734 16.2396 41.6484 17.0781C42.0286 17.9115 42.5521 18.5443 43.2188 18.9766C43.8854 19.4036 44.6536 19.6172 45.5234 19.6172C46.3932 19.6172 47.1615 19.4036 47.8281 18.9766C48.4948 18.5443 49.0156 17.9115 49.3906 17.0781C49.7708 16.2396 49.9609 15.2135 49.9609 14ZM61.5955 26.0781V6H64.4315V26.0781H61.5955ZM61.5955 22.2344C60.7153 22.2344 59.9107 22.0859 59.1815 21.7891C58.4523 21.4922 57.8221 21.0703 57.2909 20.5234C56.7648 19.9766 56.356 19.3255 56.0643 18.5703C55.7778 17.8099 55.6346 16.9687 55.6346 16.0469C55.6346 15.125 55.7778 14.2839 56.0643 13.5234C56.356 12.763 56.7648 12.1094 57.2909 11.5625C57.8221 11.0104 58.4523 10.5859 59.1815 10.2891C59.9107 9.99219 60.7153 9.84375 61.5955 9.84375H62.1971V22.2344H61.5955ZM61.5955 19.9531H61.9471V12.125H61.5955C61.0955 12.125 60.6528 12.2292 60.2674 12.4375C59.8872 12.6406 59.5669 12.9245 59.3065 13.2891C59.0513 13.6484 58.856 14.0651 58.7205 14.5391C58.5903 15.0078 58.5252 15.5104 58.5252 16.0469C58.5252 16.7604 58.6424 17.4141 58.8768 18.0078C59.1112 18.5964 59.4549 19.0677 59.908 19.4219C60.3664 19.776 60.9289 19.9531 61.5955 19.9531ZM64.4315 22.2344H63.8299V9.84375H64.4315C65.3117 9.84375 66.1164 9.99219 66.8455 10.2891C67.5747 10.5859 68.2023 11.0104 68.7284 11.5625C69.2596 12.1094 69.6685 12.763 69.9549 13.5234C70.2466 14.2839 70.3924 15.125 70.3924 16.0469C70.3924 16.9687 70.2466 17.8099 69.9549 18.5703C69.6685 19.3255 69.2596 19.9766 68.7284 20.5234C68.2023 21.0703 67.5747 21.4922 66.8455 21.7891C66.1164 22.0859 65.3117 22.2344 64.4315 22.2344ZM64.4315 19.9531C64.9367 19.9531 65.3794 19.8516 65.7596 19.6484C66.1398 19.4453 66.4575 19.1641 66.7127 18.8047C66.9732 18.4453 67.1685 18.0312 67.2987 17.5625C67.4289 17.0885 67.494 16.5833 67.494 16.0469C67.494 15.3333 67.3794 14.6797 67.1502 14.0859C66.9211 13.4922 66.5773 13.0182 66.119 12.6641C65.6659 12.3047 65.1034 12.125 64.4315 12.125H64.0799V19.9531H64.4315ZM76.1657 18.1719L80.9704 10H83.8766V22H81.1423V13.8203L76.3532 22H73.4391V10H76.1657V18.1719ZM92.6753 22.2344C91.4774 22.2344 90.4487 21.9714 89.5894 21.4453C88.7352 20.9193 88.0764 20.1927 87.6128 19.2656C87.1545 18.3333 86.9253 17.2604 86.9253 16.0469C86.9253 14.8281 87.1597 13.7526 87.6284 12.8203C88.0972 11.8828 88.7586 11.1536 89.6128 10.6328C90.4722 10.1068 91.4878 9.84375 92.6597 9.84375C93.6336 9.84375 94.4956 10.0234 95.2456 10.3828C96.0008 10.737 96.6024 11.2396 97.0503 11.8906C97.4982 12.5365 97.7534 13.2917 97.8159 14.1562H95.1128C95.0034 13.5781 94.743 13.0964 94.3316 12.7109C93.9253 12.3203 93.381 12.125 92.6987 12.125C92.1206 12.125 91.6128 12.2812 91.1753 12.5937C90.7378 12.901 90.3967 13.3437 90.1519 13.9219C89.9123 14.5 89.7925 15.1927 89.7925 16C89.7925 16.8177 89.9123 17.5208 90.1519 18.1094C90.3915 18.6927 90.7274 19.1432 91.1597 19.4609C91.5972 19.7734 92.1102 19.9297 92.6987 19.9297C93.1154 19.9297 93.4878 19.8516 93.8159 19.6953C94.1493 19.5339 94.4279 19.3021 94.6519 19C94.8758 18.6979 95.0295 18.3307 95.1128 17.8984H97.8159C97.7482 18.7474 97.4982 19.5 97.0659 20.1562C96.6336 20.8073 96.0451 21.3177 95.3003 21.6875C94.5555 22.0521 93.6805 22.2344 92.6753 22.2344Z" fill="#43AB34"/>
<path d="M106.345 22H100.923V6H106.454C108.043 6 109.408 6.32031 110.548 6.96094C111.694 7.59635 112.574 8.51042 113.189 9.70312C113.803 10.8958 114.111 12.3229 114.111 13.9844C114.111 15.651 113.801 17.0833 113.181 18.2812C112.566 19.4792 111.678 20.3984 110.517 21.0391C109.361 21.6797 107.97 22 106.345 22ZM103.822 19.4922H106.204C107.319 19.4922 108.249 19.2891 108.994 18.8828C109.738 18.4714 110.298 17.8594 110.673 17.0469C111.048 16.2292 111.236 15.2083 111.236 13.9844C111.236 12.7604 111.048 11.7448 110.673 10.9375C110.298 10.125 109.744 9.51823 109.009 9.11719C108.28 8.71094 107.374 8.50781 106.29 8.50781H103.822V19.4922ZM120.126 18.1719L124.931 10H127.837V22H125.103V13.8203L120.314 22H117.4V10H120.126V18.1719ZM131.401 26.5V10H134.183V11.9844H134.347C134.493 11.6927 134.698 11.3828 134.964 11.0547C135.23 10.7214 135.589 10.4375 136.042 10.2031C136.495 9.96354 137.073 9.84375 137.776 9.84375C138.703 9.84375 139.539 10.0807 140.284 10.5547C141.034 11.0234 141.628 11.7187 142.065 12.6406C142.508 13.5573 142.73 14.6823 142.73 16.0156C142.73 17.3333 142.513 18.4531 142.081 19.375C141.649 20.2969 141.06 21 140.315 21.4844C139.571 21.9688 138.727 22.2109 137.784 22.2109C137.097 22.2109 136.526 22.0964 136.073 21.8672C135.62 21.638 135.256 21.362 134.98 21.0391C134.709 20.7109 134.498 20.401 134.347 20.1094H134.23V26.5H131.401ZM134.175 16C134.175 16.776 134.284 17.4557 134.503 18.0391C134.727 18.6224 135.047 19.0781 135.464 19.4062C135.886 19.7292 136.396 19.8906 136.995 19.8906C137.62 19.8906 138.144 19.724 138.565 19.3906C138.987 19.0521 139.305 18.5911 139.519 18.0078C139.737 17.4193 139.847 16.75 139.847 16C139.847 15.2552 139.74 14.5937 139.526 14.0156C139.313 13.4375 138.995 12.9844 138.573 12.6562C138.151 12.3281 137.625 12.1641 136.995 12.1641C136.391 12.1641 135.878 12.3229 135.456 12.6406C135.034 12.9583 134.714 13.4036 134.495 13.9766C134.282 14.5495 134.175 15.224 134.175 16ZM151.124 22.2344C149.921 22.2344 148.882 21.9844 148.007 21.4844C147.137 20.9792 146.468 20.2656 145.999 19.3437C145.53 18.4167 145.296 17.3255 145.296 16.0703C145.296 14.8359 145.53 13.7526 145.999 12.8203C146.473 11.8828 147.134 11.1536 147.983 10.6328C148.832 10.1068 149.83 9.84375 150.975 9.84375C151.715 9.84375 152.413 9.96354 153.069 10.2031C153.731 10.4375 154.314 10.8021 154.819 11.2969C155.33 11.7917 155.731 12.4219 156.022 13.1875C156.314 13.9479 156.46 14.8542 156.46 15.9062V16.7734H146.624V14.8672H153.749C153.744 14.3255 153.627 13.8437 153.397 13.4219C153.168 12.9948 152.848 12.6589 152.436 12.4141C152.03 12.1693 151.556 12.0469 151.015 12.0469C150.436 12.0469 149.929 12.1875 149.491 12.4687C149.054 12.7448 148.712 13.1094 148.468 13.5625C148.228 14.0104 148.106 14.5026 148.1 15.0391V16.7031C148.1 17.401 148.228 18 148.483 18.5C148.738 18.9948 149.095 19.375 149.554 19.6406C150.012 19.901 150.548 20.0312 151.163 20.0312C151.574 20.0312 151.947 19.974 152.28 19.8594C152.613 19.7396 152.903 19.5651 153.147 19.3359C153.392 19.1068 153.577 18.8229 153.702 18.4844L156.343 18.7812C156.176 19.4792 155.858 20.0885 155.39 20.6094C154.926 21.125 154.332 21.526 153.608 21.8125C152.884 22.0937 152.056 22.2344 151.124 22.2344ZM159.512 22V10H162.341V14.8437H163.372L166.981 10H170.387L165.942 15.8906L170.434 22H167.012L163.723 17.4766H162.341V22H159.512ZM172.042 12.3203V10H182.542V12.3203H178.659V22H175.924V12.3203H172.042Z" fill="#005CA9"/>
<path fill-rule="evenodd" clip-rule="evenodd" d="M30 15C30 23.2843 23.2843 30 15 30C6.71573 30 0 23.2843 0 15C0 6.71573 6.71573 0 15 0C23.2843 0 30 6.71573 30 15ZM13.6926 6.30434C14.2661 5.28486 15.7339 5.28486 16.3074 6.30434L23.5975 19.2646C24.16 20.2645 23.4374 21.5 22.2902 21.5H7.70985C6.56261 21.5 5.84004 20.2645 6.40248 19.2646L13.6926 6.30434Z" fill="#005CA9"/>
</svg>
